<svg width="22" height="18" xmlns="http://www.w3.org/2000/svg" xmlns:xlink="http://www.w3.org/1999/xlink">
  <defs>
    <path d="M19 12h-2v3h-3v2h5v-5zM7 9h3V7H5v5h2V9zm14-6H3c-1.1 0-2 .9-2 2v14c0 1.1.9 2 2 2h18c1.1 0 2-.9 2-2V5c0-1.1-.9-2-2-2zm0 16.01H3V4.99h18v14.02z" id="a"/>
    <path id="c" d="M0 0h50v50H0z"/>
  </defs>
  <g transform="translate(-1 -3)" fill="none" fill-rule="evenodd">
    <mask id="b" fill="#fff">
      <use xlink:href="#a"/>
    </mask>
    <g mask="url(#b)">
      <use fill="#FFF" xlink:href="#c" transform="translate(-13 -13)"/>
    </g>
  </g>
</svg>
