<svg width="1824" height="1440" xmlns="http://www.w3.org/2000/svg">
  <path d="M1969.126702 1456.134745c-5.332855-17.915384-19.589052-49.213187-42.639609-93.926511-13.969527-28.424829-32.330333-65.34106-55.041363-110.834222-62.69203-123.04716-109.878345-209.851165-141.508847-260.493987-23.256953-36.494116-74.697272-127.16169-154.318651-272.006657-76.434285-139.320455-118.181054-214.75563-125.371361-226.270292-26.901235-41.413734-113.674625-192.226256-260.44545-452.608868-99.542116-177.568479-177.565986-316.398332-234.126208-416.509993L.698178 1277.55296l95.657918 193.845225c123.111928.794265 241.668465-.06562 355.667546-2.58088 291.134962-5.616947 494.160825-5.791917 609.110203-.38964 66.485822 3.19074 151.468318 3.739439 255.030513 1.694034 148.790227-1.923692 229.911806-2.736348 243.478952-2.266694 84.869616 6.549413 164.005842 10.110248 237.312658 10.848838 101.967986.715849 159.411916-6.836257 172.15633-22.544148l.014404-.02495zM954.080543-215.753736c13.602386 28.198337 32.111367 64.20618 55.345518 108.13875l-832.50025 1441.932732c-20.944781-33.303216-39.217136-69.716048-54.782906-109.113223L954.09122-215.772228l-.010677.018492zm93.671495 193.775372c25.437552 53.445127 68.89375 135.375566 130.582554 245.803982 79.776977 141.226623 173.360911 301.034573 280.519502 479.39505 233.14981 421.835164 360.56885 650.668393 382.42736 686.348542l-791.449683-6.550618c-397.014426-10.192303-664.833974-11.942118-803.401732-5.10846L1047.73894-21.97484l.013097-.003524zm19.515307 197.796337c-.60782-2.267727-1.267738-3.663713-2.028758-4.103088-.4395.761236-.491942 1.633068-.17008 2.833588l2.198838 1.2695zm510.291086 927.990432c-14.73394-24.185789-48.699168-84.454107-102.11081-180.81649-50.794482-93.016076-78.604115-143.131438-83.574204-150.651432-18.079672-27.955508-75.811078-128.65246-173.441282-302.234328-67.47669-118.326422-119.855197-210.850808-157.13137-277.570762l-486.06425 841.887977-1.779275 3.081794-148.656475 257.480568c81.36096-.062838 160.235536-.69751 236.658956-1.772976 195.224458-3.527761 330.74648-3.78915 406.520082-.589277 44.993449 1.97176 101.957046 2.527297 170.842472 1.750279 98.60924-1.243613 152.984192-1.639795 162.925402-1.414415 55.681602 4.466176 108.428331 6.698102 158.231068 6.903671 68.05518.47375 106.342-4.131346 114.86837-14.021073-4.660471-12.746907-16.252451-37.496808-34.868352-74.088262-19.99656-37.388302-40.788776-73.398469-62.42377-107.94892l.003438.003646zm-241.016716-322.915523c58.590243 106.827862 107.21683 195.448045 146.044087 265.955422l-515.677417-5.174414c-131.060743-3.640414-240.677776-5.949684-328.852303-6.925722l421.911978-737.904463c16.776787 36.438612 46.380999 91.005894 88.617903 163.48183 53.181485 95.364705 115.764395 202.224085 187.95276 320.58503l.002992-.017683zm-812.836799 448.785835l75.65128-131.031861c175.501135-4.063302 298.724429-4.514228 369.796677-1.390492 44.903638 1.879597 101.757523 2.31752 170.513283 1.39757 98.42389-1.4483 152.696046-1.95719 162.61784-1.752281 55.566246 4.353098 108.207838 6.476946 157.915246 6.57955 19.32339.000246 36.47738-.168955 51.604394-.751453 42.741763 77.424116 67.937931 122.408252 75.338539 135.021604l-527.174246-3.458943c-265.63254-7.357983-444.405868-8.866177-536.247094-4.593407l-.015919-.020287z" fill="#191A27" fill-rule="evenodd"/>
</svg>
