<svg xmlns="http://www.w3.org/2000/svg" width="92" height="89" viewBox="0 0 92 89">
  <path d="M72.444,88.5 C71.546,88.5 70.643,88.266 69.764,87.801 L47.167,75.922 C47.21,75.949 47.122,75.934 46.999,75.934 C46.858,75.934 46.763,75.954 46.737,75.961 L24.227,87.805 C21.967,88.998 19.352,88.565 17.877,86.815 C16.897,85.655 16.514,84.092 16.799,82.417 L21.121,57.214 L21.121,57.214 C21.103,57.214 21.017,56.95 20.947,56.845 L2.729,39.098 C1.194,37.602 0.635,35.616 1.229,33.785 C1.823,31.953 3.444,30.676 5.565,30.367 L30.862,26.691 C30.856,26.675 31.081,26.513 31.159,26.414 L42.409,3.601 C43.354,1.679 45.071,0.531 46.999,0.531 C48.925,0.531 50.64,1.679 51.589,3.601 L62.902,26.523 C62.902,26.521 62.902,26.521 62.902,26.521 C62.927,26.521 63.144,26.677 63.259,26.718 L88.429,30.366 C90.552,30.675 92.173,31.952 92.767,33.784 C93.363,35.614 92.8,37.6 91.267,39.095 L72.964,56.939 C72.976,56.949 72.89,57.212 72.886,57.339 L77.195,82.409 C77.482,84.091 77.099,85.653 76.117,86.813 C75.214,87.885 73.874,88.5 72.444,88.5 Z M46.999,67.934 C47.987,67.934 49.46,68.09 50.866,68.83 L68.323,78.006 L64.989,58.565 C64.553,56.034 65.536,53.008 67.38,51.211 L81.499,37.445 L61.983,34.609 C59.434,34.238 56.862,32.367 55.725,30.058 L46.998,12.376 L38.268,30.062 C37.135,32.367 34.561,34.238 32.012,34.609 L12.494,37.445 L26.615,51.211 C28.459,53.008 29.443,56.033 29.006,58.568 L25.672,78.006 L43.131,68.828 C44.538,68.09 46.011,67.934 46.999,67.934 Z" transform="translate(-1)"/>
</svg>
